PathFileType	4	(X/Y/Z)	C:/Users/beibeiliu/ov580/test_trc/User1\sequence.32_training_dense_right.trc
DataRate	CameraRate	NumFrames	NumMarkers	Units	OrigDataRate	OrigDataStartFrame	OrigNumFrames
120	120	12	19	mm	120	29	224
Frame#	Time	ThumbCMC			ThumbMCP			ThumbIP			ThumbTip			IndexMCP			IndexPIP			IndexTip			MiddleMCP			MiddlePIP			MiddleTip			RingMCP			RingPIP			RingTip			PinkyMCP			PinkyPIP			PinkyTip			BackHand1			BackHand2			BackHand3	
		X0	Y0	Z0	X1	Y1	Z1	X2	Y2	Z2	X3	Y3	Z3	X4	Y4	Z4	X5	Y5	Z5	X6	Y6	Z6	X7	Y7	Z7	X8	Y8	Z8	X9	Y9	Z9	X10	Y10	Z10	X11	Y11	Z11	X12	Y12	Z12	X13	Y13	Z13	X14	Y14	Z14	X15	Y15	Z15	X16	Y16	Z16	X17	Y17	Z17	X18	Y18	Z18	
28	0.233333	143.747	-33.2868	69.4112	122.404	-43.3046	47.6172	109.313	-46.9756	27.4375	93.5065	-53.7857	8.77275	143.503	-29.2736	-18.854	140.732	-48.1166	-38.9273	141.528	-83.5059	-45.3209	173.427	-33.6148	-26.6808	168.073	-59.1653	-44.4627	165.311	-97.0382	-44.0447	199.463	-39.6885	-22.9842	195.98	-63.6838	-42.3125	189.293	-92.4127	-42.4577	227.624	-41.0516	-2.78952	234.66	-45.9974	-21.4416	242.746	-47.2016	-41.9674	203.782	-14.4993	38.0282	209.827	-13.2068	73.2486	170.306	-8.85942	54.1348	
29	0.241667	145.423	-34.1367	71.0006	122.59	-45.7511	52.0176	103.633	-48.6052	28.5914	92.4291	-55.762	8.36604	147.402	-38.07	-21.1584	143.258	-54.8428	-39.5513	144.227	-83.2858	-50.6252	175.899	-42.8103	-28.3637	171.935	-69.8046	-44.5851	165.218	-104.113	-49.4123	201.687	-46.3333	-20.6028	196.504	-71.0566	-42.3475	190.488	-98.5243	-48.3096	227.565	-46.4284	-1.29045	236.896	-53.497	-20.413	245.924	-53.492	-38.4409	204.639	-17.9566	34.4442	210.876	-13.2619	70.4114	169.909	-12.3446	55.728	
30	0.25	142.453	-34.5709	68.4238	119.49	-45.379	51.67	104.339	-51.6192	31.9293	91.0779	-59.6237	15.6787	144.003	-43.3615	-18.4317	145.642	-61.8333	-41.1019	145.22	-84.0961	-55.8361	176.796	-49.9735	-26.887	173.748	-75.2361	-45.8947	172.481	-105.612	-56.105	202.648	-53.2712	-22.2292	198.368	-73.9384	-42.0747	199.092	-102.648	-53.3915	226.916	-51.9369	-2.09855	234.061	-59.0968	-19.4367	245.019	-58.4342	-36.5416	205.103	-22.0921	34.3432	207.372	-15.9567	66.6199	170.423	-14.488	53.2291	
31	0.258333	143.029	-35.5063	69.2899	117.823	-46.5648	50.0945	102.686	-52.5351	32.2132	85.5255	-61.199	16.3127	149.102	-46.9269	-17.9205	144.108	-64.8097	-41.9459	146.309	-85.5916	-60.8428	179.597	-54.9197	-28.664	178.788	-76.7175	-46.3466	174.809	-105.209	-64.2627	202.603	-58.4638	-22.0851	203.684	-77.3468	-42.1942	200.735	-96.7935	-56.3352	230.132	-57.2046	1.04286	235.801	-64.2676	-15.1491	246.218	-64.2288	-36.5284	202.827	-25.6673	32.9157	204.951	-14.7342	67.5407	173.144	-17.6847	50.4668	
32	0.266667	140.666	-35.065	71.8798	115.838	-46.8181	51.2188	98.5983	-52.6669	31.7659	84.3633	-62.5152	17.3177	148.988	-49.9147	-17.1037	141.741	-67.2761	-42.6627	143.824	-83.2648	-60.2783	180.115	-56.3053	-25.2397	177.214	-77.3792	-48.1074	182.252	-100.046	-68.4621	204.753	-59.6987	-19.7932	205.096	-75.0988	-41.9515	208.923	-94.3389	-61.7332	229.13	-59.7302	3.31065	240.762	-68.1845	-10.2733	250.721	-69.6338	-34.8914	205.943	-27.4127	33.7776	209.231	-19.0144	64.7123	172.974	-20.1728	46.3289	
33	0.275	142.296	-37.0523	69.4236	117.032	-47.6001	56.3856	99.3258	-55.3557	36.5351	81.5591	-63.1191	20.188	146.521	-54.6192	-20.2034	145.075	-66.5916	-41.0759	148.473	-81.592	-63.4339	185.147	-58.4966	-24.5655	182.105	-74.7352	-49.4604	184.057	-91.6186	-71.9931	208.225	-62.9321	-21.8373	210.605	-73.1389	-42.8539	215.297	-86.795	-61.7078	232.137	-64.5837	2.91847	241.898	-70.95	-9.04148	256.586	-69.9161	-30.2964	205.141	-29.489	32.9327	206.497	-20.2643	62.0615	169.537	-22.535	49.2826	
34	0.283333	143.629	-38.3048	66.2096	115.95	-48.0389	53.0444	102.944	-56.8066	37.0009	80.6505	-64.1337	22.38	154.254	-56.5592	-19.0286	146.028	-67.1342	-44.9876	149.411	-77.8684	-64.8057	182.442	-59.2905	-29.0743	185.217	-71.3386	-50.0684	190.341	-86.2363	-78.3546	207.468	-61.6551	-19.5561	212.648	-70.2357	-40.7672	215.163	-79.9678	-67.917	232.368	-68.2344	4.7764	243.756	-74.8801	-7.79807	254.397	-71.9506	-27.7193	207.568	-35.5206	35.4329	207.47	-22.7855	65.3792	171.778	-25.5197	45.4484	
35	0.291667	145.013	-38.2052	69.0209	116.746	-49.3367	51.315	98.983	-56.7373	36.4802	84.989	-67.0256	22.5397	151.317	-56.761	-21.2295	153.403	-66.2274	-41.6686	150.765	-73.6487	-65.2994	186.839	-58.1297	-29.7273	189.19	-67.3438	-52.5316	196.658	-76.7332	-78.3893	211.904	-60.5356	-16.5549	212.61	-65.9812	-44.471	221.162	-72.2884	-68.5499	233.79	-69.5804	3.74086	241.379	-74.8232	-5.71916	256.254	-72.8197	-26.0961	204.828	-35.3194	33.9524	208.621	-22.7244	66.7428	175.452	-25.8038	45.5582	
36	0.3	144.765	-39.4089	65.8729	120.105	-50.655	55.316	99.1848	-58.0578	32.877	83.3523	-67.2132	23.2573	157.184	-56.355	-19.3143	152.074	-62.8365	-41.619	156.693	-70.0214	-65.0358	184.74	-55.4212	-27.8833	189.969	-62.392	-50.5114	193.65	-66.1275	-81.4566	210.578	-58.1469	-15.0792	215.039	-61.4464	-43.6762	219.858	-64.5754	-67.7001	234.378	-69.1689	9.68202	247.503	-73.3585	-8.57987	253.369	-68.0773	-23.4693	205.763	-39.1261	35.4477	207.504	-24.5205	62.0006	175.164	-26.5491	48.9332	
37	0.308333	147.422	-40.3296	72.1481	119.396	-49.9096	58.2263	99.1963	-57.5254	35.1584	83.8502	-66.5694	24.3081	157.338	-54.7628	-15.0599	156.555	-59.2301	-39.3051	152.881	-63.216	-65.0031	187.265	-50.7051	-24.8674	191.683	-54.7065	-49.5774	195.88	-55.3382	-79.3201	211.459	-54.044	-13.0062	214.798	-55.1146	-41.9722	217.4	-55.8662	-63.7074	236.307	-68.4164	8.69845	246.511	-70.7337	-8.04834	254.526	-63.9559	-27.0202	208.333	-37.0529	37.7962	212.578	-24.365	63.6601	175.7	-28.0426	45.9484	
38	0.316667	147.319	-38.6504	74.8242	121.435	-48.8785	59.7405	101.752	-55.2819	37.5786	85.9573	-63.9621	28.9	157.16	-50.9838	-16.6424	153.826	-53.5795	-39.7786	155.497	-57.6244	-65.4851	189.475	-46.0348	-20.9662	187.354	-46.8607	-46.4644	190.507	-43.4685	-77.1724	209.688	-50.7022	-14.8772	215.526	-48.9684	-35.6398	216.688	-47.8093	-61.3742	233.944	-64.9979	10.4402	244.193	-67.96	-2.81504	251.834	-61.0313	-23.2707	207.958	-37.493	40.0111	209.788	-23.9148	66.1851	177.036	-24.9992	49.1067	
39	0.325	144.228	-35.9066	76.9703	121.552	-46.4038	56.9852	105.752	-53.1619	37.7054	87.8127	-60.759	29.3792	155.841	-45.0116	-8.7808	153.231	-45.8939	-34.7245	154.319	-47.9072	-61.8341	185.429	-38.8812	-21.0495	188.957	-38.2533	-46.8376	193.627	-33.9693	-74.6869	213.098	-45.9485	-13.5201	214.44	-42.5763	-36.0156	217.908	-39.9144	-61.2048	231.938	-60.692	8.71197	244.931	-62.9119	-5.25214	255.149	-56.0973	-24.4629	211.222	-34.8255	40.7961	213.857	-23.051	72.1158	175.94	-22.2737	51.7896	
